<mxfile host="app.diagrams.net" modified="2022-03-04T02:05:33.909Z" agent="5.0 (Macintosh; Intel Mac OS X 10_15_7) AppleWebKit/537.36 (KHTML, like Gecko) Chrome/99.0.4844.51 Safari/537.36" etag="Af79Y7IMO3j46dIer3w5" version="16.6.5" type="github">
  <diagram id="qF9AEHbCkQHK-28NDLdn" name="第 1 页">
    <mxGraphModel dx="1106" dy="664" grid="1" gridSize="10" guides="1" tooltips="1" connect="1" arrows="1" fold="1" page="1" pageScale="1" pageWidth="827" pageHeight="1169" math="0" shadow="0">
      <root>
        <mxCell id="0" />
        <mxCell id="1" parent="0" />
        <mxCell id="EQ4UKSnhvVzFpteJ6aTi-1" value="" style="ellipse;whiteSpace=wrap;html=1;aspect=fixed;" vertex="1" parent="1">
          <mxGeometry x="210" y="150" width="380" height="380" as="geometry" />
        </mxCell>
        <mxCell id="EQ4UKSnhvVzFpteJ6aTi-2" value="积极" style="ellipse;whiteSpace=wrap;html=1;aspect=fixed;" vertex="1" parent="1">
          <mxGeometry x="375" y="100" width="50" height="50" as="geometry" />
        </mxCell>
        <mxCell id="EQ4UKSnhvVzFpteJ6aTi-3" value="消极" style="ellipse;whiteSpace=wrap;html=1;aspect=fixed;" vertex="1" parent="1">
          <mxGeometry x="375" y="530" width="50" height="50" as="geometry" />
        </mxCell>
        <mxCell id="EQ4UKSnhvVzFpteJ6aTi-4" value="保留" style="ellipse;whiteSpace=wrap;html=1;aspect=fixed;" vertex="1" parent="1">
          <mxGeometry x="160" y="315" width="50" height="50" as="geometry" />
        </mxCell>
        <mxCell id="EQ4UKSnhvVzFpteJ6aTi-5" value="改变" style="ellipse;whiteSpace=wrap;html=1;aspect=fixed;" vertex="1" parent="1">
          <mxGeometry x="590" y="315" width="50" height="50" as="geometry" />
        </mxCell>
        <mxCell id="EQ4UKSnhvVzFpteJ6aTi-8" value="" style="endArrow=none;dashed=1;html=1;dashPattern=1 3;strokeWidth=2;rounded=0;entryX=0.5;entryY=1;entryDx=0;entryDy=0;" edge="1" parent="1" source="EQ4UKSnhvVzFpteJ6aTi-2" target="EQ4UKSnhvVzFpteJ6aTi-1">
          <mxGeometry width="50" height="50" relative="1" as="geometry">
            <mxPoint x="390" y="370" as="sourcePoint" />
            <mxPoint x="440" y="320" as="targetPoint" />
          </mxGeometry>
        </mxCell>
        <mxCell id="EQ4UKSnhvVzFpteJ6aTi-9" value="" style="endArrow=none;dashed=1;html=1;rounded=0;entryX=0;entryY=0.5;entryDx=0;entryDy=0;" edge="1" parent="1" source="EQ4UKSnhvVzFpteJ6aTi-4" target="EQ4UKSnhvVzFpteJ6aTi-5">
          <mxGeometry width="50" height="50" relative="1" as="geometry">
            <mxPoint x="390" y="370" as="sourcePoint" />
            <mxPoint x="440" y="320" as="targetPoint" />
          </mxGeometry>
        </mxCell>
      </root>
    </mxGraphModel>
  </diagram>
</mxfile>
